<?xml version="1.0" encoding="UTF-8" standalone="no"?>
<svg
   xmlns:dc="http://purl.org/dc/elements/1.1/"
   xmlns:cc="http://creativecommons.org/ns#"
   xmlns:rdf="http://www.w3.org/1999/02/22-rdf-syntax-ns#"
   xmlns:svg="http://www.w3.org/2000/svg"
   xmlns="http://www.w3.org/2000/svg"
   xmlns:sodipodi="http://sodipodi.sourceforge.net/DTD/sodipodi-0.dtd"
   xmlns:inkscape="http://www.inkscape.org/namespaces/inkscape"
   sodipodi:docname="sunny.svg"
   inkscape:version="1.0 (1.0+r73+1)"
   id="svg1922"
   version="1.1"
   viewBox="0 0 10.121302 10.116775"
   height="10.116775mm"
   width="10.121302mm">
  <defs
     id="defs1916">
    <linearGradient
       id="linearGradient1576-1"
       y2="954.77002"
       gradientUnits="userSpaceOnUse"
       x2="674.65002"
       y1="874.65997"
       x1="674.65002"
       inkscape:collect="always">
      <stop
         id="stop4163-1"
         style="stop-color:#ffc800"
         offset="0" />
      <stop
         id="stop4165-0"
         style="stop-color:#ffc100;stop-opacity:0"
         offset="1" />
    </linearGradient>
  </defs>
  <sodipodi:namedview
     inkscape:window-maximized="1"
     inkscape:window-y="24"
     inkscape:window-x="65"
     inkscape:window-height="1056"
     inkscape:window-width="1855"
     fit-margin-bottom="0"
     fit-margin-right="0"
     fit-margin-left="0"
     fit-margin-top="0"
     showgrid="false"
     inkscape:document-rotation="0"
     inkscape:current-layer="layer1"
     inkscape:document-units="mm"
     inkscape:cy="-159.31886"
     inkscape:cx="125.55201"
     inkscape:zoom="1.77"
     inkscape:pageshadow="2"
     inkscape:pageopacity="0.0"
     borderopacity="1.0"
     bordercolor="#666666"
     pagecolor="#ffffff"
     id="base" />
  <metadata
     id="metadata1919">
    <rdf:RDF>
      <cc:Work
         rdf:about="">
        <dc:format>image/svg+xml</dc:format>
        <dc:type
           rdf:resource="http://purl.org/dc/dcmitype/StillImage" />
        <dc:title></dc:title>
      </cc:Work>
    </rdf:RDF>
  </metadata>
  <g
     transform="translate(-3.3285442,-0.97255532)"
     id="layer1"
     inkscape:groupmode="layer"
     inkscape:label="Layer 1">
    <g
       id="sunny"
       transform="matrix(0.11729006,0,0,0.11729006,3.3529295,0.2247031)">
      <path
         id="path2280-3"
         style="fill:#fff000;fill-rule:evenodd;stroke:#ffc800;stroke-width:1.0266"
         sodipodi:type="star"
         d="m 703.07023,952.6465 7.41641,15.35128 -14.43138,-9.07745 3.3657,16.71338 -11.72053,-12.38121 -0.89648,17.02531 -8.27322,-14.907 -5.10235,16.26749 -4.30608,-16.49614 -8.9876,14.48751 -0.0684,-17.04877 -12.30814,11.79724 4.17363,-16.53015 -14.85531,8.36569 8.15338,-14.97289 -16.46906,4.40851 11.62084,-12.47482 -17.04801,0.17431 14.35811,-9.19292 -16.55577,-4.07083 16.19321,-5.33339 -15.02326,-8.06019 17.01083,-1.13874 -12.54679,-11.54309 16.75959,3.12745 -9.28195,-14.30071 15.45529,7.19714 -5.4339,-16.15975 13.17988,10.8146 -1.24442,-17.00342 10.07633,13.75255 3.02325,-16.77871 6.33964,15.82637 7.10097,-15.49972 2.20461,16.90576 10.7325,-13.24683 -2.06894,16.9229 13.68968,-10.16159 -6.2125,15.87671 15.78667,-6.43786 -9.96569,13.83293 16.89173,-2.30962 -13.09271,10.91998 16.93543,1.96374 -15.39707,7.32088 15.915,6.11372 -16.73397,3.26178 13.89459,9.87955 -17.01941,-1.00226 11.00112,13.02461 z"
         sodipodi:r1="37.544731"
         sodipodi:r2="53.63533"
         transform="matrix(0.77925,0,0,0.77925,-482.78,-673.76)"
         sodipodi:arg2="0.84111248"
         sodipodi:arg1="0.71544878"
         inkscape:randomized="0"
         sodipodi:cy="928.0188"
         sodipodi:cx="674.73151"
         inkscape:rounded="0"
         inkscape:flatsided="false"
         sodipodi:sides="25" />
      <path
         id="path2282-5"
         style="fill:url(#linearGradient1576-1);fill-rule:evenodd"
         sodipodi:type="star"
         sodipodi:sides="25"
         sodipodi:r1="37.544731"
         sodipodi:r2="53.63533"
         sodipodi:arg1="0.71544878"
         sodipodi:arg2="0.84111248"
         transform="matrix(0.63915,0,0,0.63915,-388.26,-543.72)"
         inkscape:randomized="0"
         sodipodi:cy="928.0188"
         sodipodi:cx="674.73151"
         inkscape:rounded="0"
         inkscape:flatsided="false"
         d="m 703.07023,952.6465 7.41641,15.35128 -14.43138,-9.07745 3.3657,16.71338 -11.72053,-12.38121 -0.89648,17.02531 -8.27322,-14.907 -5.10235,16.26749 -4.30608,-16.49614 -8.9876,14.48751 -0.0684,-17.04877 -12.30814,11.79724 4.17363,-16.53015 -14.85531,8.36569 8.15338,-14.97289 -16.46906,4.40851 11.62084,-12.47482 -17.04801,0.17431 14.35811,-9.19292 -16.55577,-4.07083 16.19321,-5.33339 -15.02326,-8.06019 17.01083,-1.13874 -12.54679,-11.54309 16.75959,3.12745 -9.28195,-14.30071 15.45529,7.19714 -5.4339,-16.15975 13.17988,10.8146 -1.24442,-17.00342 10.07633,13.75255 3.02325,-16.77871 6.33964,15.82637 7.10097,-15.49972 2.20461,16.90576 10.7325,-13.24683 -2.06894,16.9229 13.68968,-10.16159 -6.2125,15.87671 15.78667,-6.43786 -9.96569,13.83293 16.89173,-2.30962 -13.09271,10.91998 16.93543,1.96374 -15.39707,7.32088 15.915,6.11372 -16.73397,3.26178 13.89459,9.87955 -17.01941,-1.00226 11.00112,13.02461 z" />
    </g>
  </g>
</svg>
