<?xml version="1.0" encoding="UTF-8" standalone="no"?>
<!-- Created with Inkscape (http://www.inkscape.org/) -->

<svg
   xmlns:dc="http://purl.org/dc/elements/1.1/"
   xmlns:cc="http://creativecommons.org/ns#"
   xmlns:rdf="http://www.w3.org/1999/02/22-rdf-syntax-ns#"
   xmlns:svg="http://www.w3.org/2000/svg"
   xmlns="http://www.w3.org/2000/svg"
   xmlns:sodipodi="http://sodipodi.sourceforge.net/DTD/sodipodi-0.dtd"
   xmlns:inkscape="http://www.inkscape.org/namespaces/inkscape"
   id="svg2"
   sodipodi:docname="wind-blowing-cloud.svg"
   viewBox="0 0 629.71 396.1"
   version="1.1"
   inkscape:version="0.92.4 (5da689c313, 2019-01-14)">
  <defs
     id="defs23" />
  <sodipodi:namedview
     id="base"
     bordercolor="#666666"
     inkscape:pageshadow="2"
     inkscape:window-y="-8"
     pagecolor="#ffffff"
     inkscape:window-height="1017"
     inkscape:window-maximized="1"
     inkscape:zoom="0.49497475"
     inkscape:window-x="-8"
     showgrid="false"
     borderopacity="1.0"
     inkscape:current-layer="layer1"
     inkscape:cx="25.487079"
     inkscape:cy="190.57842"
     inkscape:window-width="1920"
     inkscape:pageopacity="0.0"
     inkscape:document-units="px" />
  <g
     id="layer1"
     inkscape:label="Camada 1"
     inkscape:groupmode="layer"
     transform="translate(6.6782 -216.38)">
    <g
       id="g3880"
       transform="matrix(-1,0,0,1,618.28152,0)">
      <path
         id="rect3801"
         sodipodi:nodetypes="ccscscscccscsc"
         style="fill:#e6e6e6"
         d="m 498.31,291.75 -191.9,202.78 c 25.661,18.682 64.452,30.594 107.88,30.594 74.018,0 134.6,-34.591 139.56,-78.375 39.668,-14.86 66.062,-41.343 66.062,-71.531 0,-42.274 -51.776,-77.273 -119.25,-83.281 -16.823,-29.307 -54.291,-49.719 -97.812,-49.719 -10.152,0 -19.973,1.1448 -29.281,3.2188 -22.89,-15.98 -55.08,-25.94 -90.73,-25.94 -66.427,0 -120.79,34.558 -125.38,78.312 -60.853,9.1332 -105.94,42.24 -105.94,81.688 0,31.334 28.456,58.66 70.656,73.156 10.345,38.251 54.043,66.969 106.38,66.969 40.507,0 75.835,-17.204 94.531,-42.719"
         inkscape:connector-curvature="0" />
      <ellipse
         id="path3780"
         style="fill:#ffffff;stroke:#000000;stroke-width:6.25"
         transform="matrix(0.74053,-0.19842,0.26397,0.98514,-28.039,60.031)"
         cx="241.17392"
         cy="403.33917"
         rx="17.930208"
         ry="18.182745" />
      <path
         id="path2816-2"
         style="fill:none;stroke:#000000;stroke-width:6.25"
         d="M 157.93,461.27 C 96.838,452.23 51.52,419.05 51.52,379.51 c 0,-39.671 45.596,-72.934 106.97,-81.845 m 182.24,-39.847 c 17.529,-9.8129 38.966,-15.583 62.116,-15.583 43.707,0 81.309,20.569 98.027,50.078 m -339.77,32.59 c -2.5943,-6.7456 -3.9742,-13.818 -3.9742,-21.107 0,-46.55 56.284,-84.286 125.71,-84.286 35.643,0 67.822,9.9452 90.699,25.922 m 97.136,45.785 c 3.0763,-0.12158 6.1797,-0.18333 9.3071,-0.18333 77.267,0 139.9,37.693 139.9,84.191 0,30.235 -26.485,56.748 -66.257,71.595 m -3.8047,-26.786 c 2.8381,6.6843 4.3469,13.689 4.3469,20.905 0,46.497 -62.638,84.191 -139.9,84.191 -43.423,0 -82.226,-11.905 -107.89,-30.586 m 16.707,-17.633 c -18.697,25.515 -54.028,42.722 -94.535,42.722 -52.657,0 -96.569,-29.078 -106.56,-67.685"
         inkscape:connector-curvature="0" />
      <g
         id="g3685"
         transform="matrix(0.98735,0.15856,-0.15856,0.98735,70.72,-18.534)">
        <path
           id="path3669"
           sodipodi:nodetypes="cc"
           style="fill:none;stroke:#000000;stroke-width:6.25"
           d="M 254,392.36 C 170.2,424.08 92.07,504.89 2.57,484.43"
           inkscape:connector-curvature="0" />
        <path
           id="path3671"
           sodipodi:nodetypes="cc"
           style="fill:none;stroke:#000000;stroke-width:6.25"
           d="M 254,392.36 C 196.35,452.84 110.4,511.3 92.21,581.22"
           inkscape:connector-curvature="0" />
        <path
           id="path3673"
           sodipodi:nodetypes="cc"
           style="fill:none;stroke:#000000;stroke-width:6.25"
           d="M 254,392.36 C 233.115,457.789 158.097,540.2 210.219,602.17"
           inkscape:connector-curvature="0" />
        <path
           id="path3675"
           sodipodi:nodetypes="cc"
           style="fill:none;stroke:#000000;stroke-width:6.25"
           d="M 254,392.36 C 169.29,406.02 71.38,447.46 1.79,384.94"
           inkscape:connector-curvature="0" />
      </g>
      <circle
         id="path3691"
         style="fill:#ffffff;stroke:#000000;stroke-width:4.64799976"
         transform="matrix(0.86573,-0.27297,0.28399,1.2472,-64.544,-16.285)"
         cx="233.34525"
         cy="335.15387"
         r="9.0913725" />
      <circle
         id="path3691-4"
         style="fill:#ffffff;stroke:#000000;stroke-width:4.64799976"
         transform="matrix(0.86573,-0.27297,0.28399,1.2472,-14.964,-20.285)"
         cx="233.34525"
         cy="335.15387"
         r="9.0913725" />
      <path
         id="path3728"
         sodipodi:nodetypes="csc"
         style="fill:none;stroke:#000000;stroke-width:6.25"
         d="m 215.24,318.43 c 0,0 7.5492,-14.647 14.395,-14.647 6.8455,0 14.395,8.6472 14.395,8.6472"
         inkscape:connector-curvature="0" />
      <path
         id="path3728-5"
         sodipodi:nodetypes="csc"
         style="fill:none;stroke:#000000;stroke-width:6.25"
         d="m 265.31,316.43 c 0,0 7.5492,-14.647 14.395,-14.647 6.8455,0 14.395,8.6472 14.395,8.6472"
         inkscape:connector-curvature="0" />
      <path
         id="path3728-51"
         sodipodi:nodetypes="csc"
         style="fill:none;stroke:#000000;stroke-width:6.25"
         d="m 264.22,379.53 c 0,0 -16.017,-4.3602 -18.106,-11.264 -2.0892,-6.9041 9.3198,-17.771 9.3198,-17.771"
         inkscape:connector-curvature="0" />
      <circle
         id="path3691-1"
         style="fill:#000000;stroke:#000000;stroke-width:4.64799976"
         transform="matrix(0.45484,-0.14341,0.1492,0.65525,75.228,156.13)"
         cx="233.34525"
         cy="335.15387"
         r="9.0913725" />
      <circle
         id="path3691-1-1"
         style="fill:#000000;stroke:#000000;stroke-width:4.64799976"
         transform="matrix(0.45484,-0.14341,0.1492,0.65525,124.57,153.18)"
         cx="233.34525"
         cy="335.15387"
         r="9.0913725" />
    </g>
  </g>
  <metadata
     id="metadata20">
    <rdf:RDF>
      <cc:Work>
        <dc:format>image/svg+xml</dc:format>
        <dc:type
           rdf:resource="http://purl.org/dc/dcmitype/StillImage" />
        <cc:license
           rdf:resource="http://creativecommons.org/licenses/publicdomain/" />
        <dc:publisher>
          <cc:Agent
             rdf:about="http://openclipart.org/">
            <dc:title>Openclipart</dc:title>
          </cc:Agent>
        </dc:publisher>
        <dc:title>Wind blowing cloud</dc:title>
        <dc:date>2010-06-19T07:48:12</dc:date>
        <dc:description>A wind blowing cloud.</dc:description>
        <dc:source>https://openclipart.org/detail/67723/wind-blowing-cloud-by-laobc</dc:source>
        <dc:creator>
          <cc:Agent>
            <dc:title>laobc</dc:title>
          </cc:Agent>
        </dc:creator>
        <dc:subject>
          <rdf:Bag>
            <rdf:li>cloud</rdf:li>
            <rdf:li>face</rdf:li>
            <rdf:li>weather</rdf:li>
            <rdf:li>wind</rdf:li>
          </rdf:Bag>
        </dc:subject>
      </cc:Work>
      <cc:License
         rdf:about="http://creativecommons.org/licenses/publicdomain/">
        <cc:permits
           rdf:resource="http://creativecommons.org/ns#Reproduction" />
        <cc:permits
           rdf:resource="http://creativecommons.org/ns#Distribution" />
        <cc:permits
           rdf:resource="http://creativecommons.org/ns#DerivativeWorks" />
      </cc:License>
    </rdf:RDF>
  </metadata>
</svg>
